<?xml version="1.0" encoding="UTF-8" standalone="no"?>
<!-- Created with Inkscape (http://www.inkscape.org/) -->

<svg
   xmlns:dc="http://purl.org/dc/elements/1.1/"
   xmlns:cc="http://creativecommons.org/ns#"
   xmlns:rdf="http://www.w3.org/1999/02/22-rdf-syntax-ns#"
   xmlns:svg="http://www.w3.org/2000/svg"
   xmlns="http://www.w3.org/2000/svg"
   xmlns:sodipodi="http://sodipodi.sourceforge.net/DTD/sodipodi-0.dtd"
   xmlns:inkscape="http://www.inkscape.org/namespaces/inkscape"
   width="640"
   height="260"
   viewBox="0 0 169.33333 68.791675"
   version="1.1"
   id="svg8"
   inkscape:version="0.92.2 5c3e80d, 2017-08-06"
   sodipodi:docname="synolo_logo.svg">
  <defs
     id="defs2" />
  <sodipodi:namedview
     id="base"
     pagecolor="#ffffff"
     bordercolor="#666666"
     borderopacity="1.0"
     inkscape:pageopacity="0.0"
     inkscape:pageshadow="2"
     inkscape:zoom="1.979899"
     inkscape:cx="422.49371"
     inkscape:cy="76.671125"
     inkscape:document-units="mm"
     inkscape:current-layer="layer1"
     showgrid="false"
     units="px"
     inkscape:window-width="1680"
     inkscape:window-height="925"
     inkscape:window-x="0"
     inkscape:window-y="1"
     inkscape:window-maximized="1" />
  <metadata
     id="metadata5">
    <rdf:RDF>
      <cc:Work
         rdf:about="">
        <dc:format>image/svg+xml</dc:format>
        <dc:type
           rdf:resource="http://purl.org/dc/dcmitype/StillImage" />
        <dc:title></dc:title>
      </cc:Work>
    </rdf:RDF>
  </metadata>
  <g
     inkscape:label="Layer 1"
     inkscape:groupmode="layer"
     id="layer1"
     transform="translate(0,-228.20824)">
    <g
       id="g963"
       transform="translate(4.9444858,-18.92846)">
      <path
         d="m 67.838151,277.66324 q 0,0.31411 -0.117785,0.52613 -0.109943,0.21203 -0.266994,0.21203 -0.03141,0 -0.157056,-0.0315 l -0.102088,0.18061 -0.141353,0.38479 -0.353376,0.38478 -0.164909,0.22773 -0.219878,0.0156 -0.730308,0.36909 -0.33767,0.0471 -0.573253,0.19634 -0.455462,-0.0863 -0.691045,0.16491 q -0.07068,0 -0.769573,-0.14922 -0.329817,-0.0707 -0.416198,-0.14133 l -0.306258,-0.19631 -0.384787,-0.21989 q -0.243435,-0.15705 -0.400491,-0.40049 -0.14921,-0.25129 -0.14921,-0.45546 0,-0.12567 0.266995,-0.33767 0.266994,-0.21987 0.58896,-0.36908 l 0.172761,0.22772 0.14921,0.69106 0.2827,0.17276 0.455461,0.35337 0.219878,0.0707 0.424051,0.20418 h 0.290553 l 0.188466,0.0315 0.384787,-0.10987 0.643929,-0.0628 0.321964,-0.16491 0.306258,-0.11002 q 0.290554,-0.17276 0.5654,-0.70675 0.274849,-0.54183 0.274849,-0.98159 0,-0.16491 -0.102087,-0.29055 l -0.306259,-0.4319 -0.07853,-0.19634 -0.188466,-0.0942 -0.102088,0.12567 -0.172761,-0.0156 -0.42405,-0.0628 H 64.76771 64.642069 l -0.212025,-0.30627 q -0.164908,0.18847 -0.266995,0.24345 -0.102087,0.0471 -0.392639,0.0942 l -0.274847,0.0471 -0.157055,-0.0786 h -0.19632 l -0.204173,-0.15706 -0.259141,0.0471 -0.243437,-0.11777 -0.33767,-0.10987 q -0.19632,-0.0628 -0.33767,-0.30626 -0.141354,-0.24344 -0.141354,-0.49472 0,-0.38478 0.266995,-0.81668 0.266995,-0.43192 0.746014,-0.79315 0.369081,-0.28269 0.879512,-0.55754 0.510431,-0.27485 0.958039,-0.42405 0.455463,-0.14922 0.746015,-0.14922 0.08637,0 0.596811,0.16491 l 0.227732,0.0786 q 0.53399,-0.0942 0.691045,-0.0942 0.219878,0 0.345523,0.0707 0.133497,0.0707 0.133497,0.17275 0,0.10211 -0.227731,0.29056 -0.219878,0.1806 -0.557549,0.33767 l -0.243434,0.10987 -0.204173,-0.0156 -0.392639,-0.0157 -0.298407,-0.0786 -0.133497,-0.27485 h -0.109944 l -0.133497,0.14132 H 64.673471 64.44574 l -0.321964,0.0471 -0.243436,-0.0628 -0.125641,0.0942 -0.502578,0.29056 q -0.526136,0.45546 -0.526136,0.82454 0,0.25914 0.157054,0.33767 l 0.518285,0.23559 0.157055,0.0863 v 0.18846 l 0.243437,0.13357 0.259141,-0.24342 0.125642,0.0157 1.319267,-0.0942 0.628224,0.14132 0.290552,-0.0471 0.369082,0.24344 0.549695,0.30626 q 0.164908,0.10987 0.290553,0.49473 l 0.06282,0.21201 q 0.141354,0.49474 0.141354,0.8167 z"
         style="font-style:normal;font-variant:normal;font-weight:normal;font-stretch:normal;font-size:medium;line-height:1.25;font-family:Papyrus;-inkscape-font-specification:'Papyrus, Normal';font-variant-ligatures:normal;font-variant-caps:normal;font-variant-numeric:normal;text-align:start;letter-spacing:0px;word-spacing:0px;writing-mode:lr-tb;text-anchor:start;fill:#000000;fill-opacity:1;stroke:none;stroke-width:0.40206259"
         id="path900"
         inkscape:connector-curvature="0" />
      <path
         d="m 74.045436,278.30717 -0.266995,0.73815 v 0.0315 l 0.03141,0.11777 0.157056,0.18847 -0.06282,0.42406 0.03141,0.60465 -0.07853,0.19633 0.01571,0.8324 -0.117784,0.27483 -0.07853,0.3848 -0.125641,0.25914 0.0157,0.40049 -0.274847,0.67534 -0.06282,0.18061 -0.227732,0.14132 -0.596812,0.76172 -0.353375,0.52613 q -0.19632,0.30626 -0.400491,0.40049 l -0.204173,0.11777 -0.196319,0.20418 -0.243437,0.14922 -0.141353,0.12568 -0.337669,0.0942 q -0.0079,0 -0.50258,0.22773 l -0.494724,0.1806 -0.706751,0.20418 -0.738161,-0.0786 -0.392641,-0.0471 q -0.2827,-0.0236 -0.479019,-0.13358 l -0.533989,-0.33767 -0.266995,-0.0628 -0.212026,-0.29055 -0.416197,-0.25129 q -0.14921,-0.12568 -0.14921,-0.43975 0,-0.32983 0.227731,-0.62823 0.07068,-0.0863 0.306258,-0.10987 l 0.09423,0.22773 0.07853,0.21987 0.306259,0.42406 0.306258,0.47901 q 0.16491,0.16491 0.243437,0.16491 h 0.0157 l 0.109944,-0.0157 0.659634,0.26699 0.549695,0.0392 q 0.102087,0.0786 0.204173,0.0786 0.07853,0 0.212024,-0.10212 l 0.180615,0.0236 q 0.329817,0 0.942334,-0.27484 0.541843,-0.26699 0.659633,-0.40049 l 0.596812,-0.61252 0.369081,-0.22773 q 0.204173,-0.15705 0.33767,-0.58111 l 0.19632,-0.64392 0.290553,-0.44762 -0.04712,-0.33767 0.141354,-0.62822 0.01571,-0.64393 q 0,-0.32982 0.14921,-0.65963 l 0.125641,-0.43191 -0.09423,-0.36908 -0.08637,-1.09153 -0.01571,-0.18061 v -0.0786 l 0.133497,-0.41621 -0.08637,-0.11777 -0.235583,0.11777 -0.274848,0.15707 -0.22773,0.24343 -0.753868,0.47902 -0.384786,0.36908 -0.596812,0.43976 q -0.251289,0.17275 -0.384787,0.21987 l -0.518283,0.0863 -0.2827,0.11002 q -0.172763,0.0471 -0.259143,0.0471 -0.306259,0 -0.81669,-0.19631 -0.51043,-0.19632 -0.698897,-0.4005 -0.306259,-0.30626 -0.306259,-0.78528 l 0.0157,-0.16491 q 0.164909,-0.10987 0.164909,-0.20417 0,-0.0157 -0.0079,-0.0236 0,-0.0156 -0.0079,-0.0236 l -0.164909,-0.22773 -0.01571,-0.22774 0.04712,-0.20416 0.306259,-0.70676 -0.06282,-0.27485 v -0.10212 q 0,-0.0863 0.06282,-0.38478 l 0.14921,-0.57325 q 0.04712,-0.20418 0.07853,-0.39264 l 0.01571,-0.60466 0.14921,-0.61253 q 0,-0.11002 -0.117785,-0.27485 l -0.219878,-0.0315 -0.02355,-0.13357 0.290554,-0.33767 0.180614,-0.0628 0.274847,-0.0786 0.785279,-0.44762 h 0.04712 q 0.117785,0 0.188466,0.0942 0.07068,0.0942 0.07068,0.24344 v 0.0471 l -0.243436,0.59681 -0.109944,0.58895 -0.196319,0.90307 -0.04712,0.53399 q -0.03927,0.11777 -0.125641,0.14132 l -0.243437,0.0628 q -0.125641,0.0471 -0.125641,0.18061 0,0.18848 0.321965,0.18848 l -0.227731,1.62552 -0.06282,0.47117 0.04712,0.12567 0.109943,0.14132 0.227731,0.37693 0.447608,0.17276 0.212026,0.24344 0.109944,0.0471 h 0.06282 l 0.259142,-0.18062 0.753868,-0.2513 0.321963,-0.22773 0.549695,-0.38478 0.518285,-0.50258 0.337669,-0.20417 0.141354,-0.0863 0.290553,-0.75388 0.04712,-0.0315 0.03141,-0.14132 0.164908,-0.19632 -0.07068,-0.4319 0.07068,-0.11777 -0.03927,-0.33767 0.05496,-0.17277 -0.133497,-0.69104 -0.06282,-0.95019 -0.227731,-0.46331 q -0.0157,-0.0315 -0.0157,-0.10212 v -0.12567 l 0.337668,-0.10987 0.243437,-0.22773 0.463314,-0.0628 0.180615,-0.0471 q 0.227731,0.15705 0.227731,0.267 v 0.0392 l -0.04712,0.28271 0.03141,0.5654 -0.07068,0.22773 v 0.20417 l -0.09423,0.35337 0.0157,0.11777 q 0.117785,0.2827 0.180614,0.42405 0.06282,0.14132 0.06282,0.21989 v 0.20416 l 0.03141,0.50258 -0.109943,0.27485 q -0.03141,0.0942 -0.03141,0.14132 0,0.21987 0.25129,0.4476 l -0.01571,0.19633 z m -1.727614,-8.85794 -0.07853,0.10987 -0.439756,0.73816 -0.2827,0.32196 -0.196319,0.19632 0.03141,0.0942 -0.09423,0.19632 -0.321964,0.46332 -0.306258,0.27485 -0.09423,0.14132 h -0.04712 v -0.0315 h -0.424049 l -0.03141,-0.15705 q 0.172761,-0.5654 0.274848,-0.7303 l 0.306258,-0.51044 q 0.212025,-0.34551 0.212025,-0.41619 l -0.03927,-0.27485 -0.125641,-0.0786 0.164908,-0.30624 0.36908,-0.0156 0.848102,-0.13358 q 0.0079,-0.008 0.0079,-0.008 0.0079,-0.008 0.02355,-0.008 0.117785,0 0.243436,0.13342 z"
         style="font-style:normal;font-variant:normal;font-weight:normal;font-stretch:normal;font-size:medium;line-height:1.25;font-family:Papyrus;-inkscape-font-specification:'Papyrus, Normal';font-variant-ligatures:normal;font-variant-caps:normal;font-variant-numeric:normal;text-align:start;letter-spacing:0px;word-spacing:0px;writing-mode:lr-tb;text-anchor:start;fill:#000000;fill-opacity:1;stroke:none;stroke-width:0.40206259"
         id="path902"
         inkscape:connector-curvature="0" />
      <path
         d="m 79.736228,279.43011 -0.07853,0.22773 -1.083685,0.51829 q -0.219878,-0.2827 -0.219878,-0.35338 v -0.0392 l 0.188466,-0.75386 0.01571,-0.33767 0.06282,0.0156 0.133497,-0.15706 q -0.05496,-0.12568 -0.109944,-0.16491 -0.04712,-0.0392 -0.180614,-0.0942 l -0.03141,-0.12567 0.125641,-1.46847 -0.07853,-0.20418 0.01571,-0.25913 v -0.59681 l 0.09423,-0.29057 -0.141354,-0.14132 0.0157,-0.47117 q -0.08637,-0.25914 -0.290553,-0.49472 v -0.0786 q 0,-0.10212 -0.06282,-0.14922 l -0.19632,-0.0157 -0.400492,-0.24344 -0.643927,0.0392 -0.738163,-0.055 q -0.09423,0.0471 -0.212024,0.19632 l -0.141354,-0.0315 -0.612517,0.10987 -0.219878,0.0471 -0.274848,0.21203 -0.353374,0.15705 q -0.259143,0.12567 -0.290554,0.37694 l -0.01571,0.76957 -0.102088,0.47901 0.16491,0.47117 v 0.2513 l -0.01571,0.93448 -0.149195,0.32196 -0.01571,0.11777 v 0.0471 l 0.14921,0.25128 0.04712,0.85596 0.06282,0.27484 q 0,0.0471 -0.04712,0.12567 -0.04712,0.0707 -0.125641,0.10212 l -0.518285,0.12567 -0.141354,0.0315 q -0.125641,0.21203 -0.243436,0.21203 -0.07853,0 -0.164909,-0.0863 -0.0079,-0.0156 -0.02355,-0.0315 -0.0079,-0.0156 -0.02355,-0.0315 -0.03141,-0.0628 -0.03141,-0.0471 l 0.117784,-0.58109 -0.01571,-0.65963 0.07853,-0.267 -0.06282,-0.43976 0.03141,-0.47902 0.01571,-1.013 q 0,-0.20418 0.274849,-0.22773 -0.02355,-0.17277 -0.08638,-0.21203 -0.05496,-0.0471 -0.25129,-0.0471 l 0.01571,-1.41349 0.172761,-0.10987 -0.09423,-0.16491 -0.212024,-0.57326 -0.141354,-0.1806 0.09423,-0.17276 0.164907,-0.19632 0.2827,-0.12567 0.274849,-0.21202 q 0.1178,-0.0942 0.290553,-0.0942 0.102087,0 0.19632,0.0628 0.09423,0.055 0.109943,0.12568 l 0.0157,0.73816 0.03141,0.24344 0.14921,-0.0471 q 0.2827,-0.34552 0.659634,-0.64393 0.384786,-0.30626 0.573253,-0.30626 0.102088,0 0.164908,0.16491 0.157056,-0.0471 0.369082,-0.18061 0.22773,-0.12567 0.384786,-0.12567 h 0.04712 l 0.643929,0.0628 0.243436,-0.0786 0.722456,0.0942 q 0.369081,0.0471 0.581105,0.25916 l 0.109944,-0.0157 q 0.25129,0 0.416199,0.21988 l 0.117785,0.19633 0.157055,0.25914 q 0.109944,0.13357 0.109944,0.57325 v 0.43975 l 0.03141,0.18847 -0.188467,0.24343 0.06282,0.19632 0.09423,0.17276 v 0.18062 0.14133 q 0,0.0628 -0.0157,0.0942 l -0.109943,0.22773 q -0.03141,0.0628 -0.03141,0.22773 l 0.157055,0.20417 -0.0157,0.22773 -0.01571,0.5497 v 0.0628 l 0.1178,0.30626 0.0157,0.70674 z"
         style="font-style:normal;font-variant:normal;font-weight:normal;font-stretch:normal;font-size:medium;line-height:1.25;font-family:Papyrus;-inkscape-font-specification:'Papyrus, Normal';font-variant-ligatures:normal;font-variant-caps:normal;font-variant-numeric:normal;text-align:start;letter-spacing:0px;word-spacing:0px;writing-mode:lr-tb;text-anchor:start;fill:#000000;fill-opacity:1;stroke:none;stroke-width:0.40206259"
         id="path904"
         inkscape:connector-curvature="0" />
      <path
         d="m 87.663277,275.97489 -0.172762,-0.0315 0.03141,0.1806 -0.180614,0.12567 q 0.03927,0.14133 0.06282,0.17277 0.03141,0.0315 0.14921,0.10212 l 0.01571,0.15705 q 0,0.85596 -0.659634,1.85326 -0.14921,0.21988 -0.36908,0.46332 -0.219878,0.24344 -0.274849,0.32196 l -0.235583,0.0628 -1.484177,0.69105 -0.81669,0.0315 -0.59681,0.14922 -0.706751,-0.0156 -0.243436,0.0628 -0.706751,-0.12567 -0.290553,-0.0157 -0.157056,-0.18062 -0.439756,-0.0628 -0.204173,-0.10987 q -0.266993,-0.20418 -0.447608,-0.33767 -0.180614,-0.14133 -0.235583,-0.18062 -0.04712,-0.0471 -0.07853,-0.0942 l -0.172761,-0.33767 -0.243437,-0.19632 -0.188466,-0.49472 -0.07068,-0.19632 0.08637,-0.0628 q 0,-0.11002 0.03141,-0.14922 0.03141,-0.0392 0.141354,-0.0786 l -0.04712,-0.12567 -0.259142,-0.16491 v -0.32196 q 0,-0.33767 0.07853,-0.66748 0.07853,-0.32982 0.274848,-0.76172 0.306258,-0.69104 0.455461,-0.78529 l 0.321965,-0.21201 0.172761,-0.30627 q 0.09423,-0.1649 0.22773,-0.21987 l 0.738162,-0.39265 0.416198,-0.33767 0.502578,-0.18846 0.879512,-0.30626 0.730309,-0.0628 0.573253,-0.0157 q 0.486873,0 0.486873,0.267 0.133498,0.11777 0.172761,0.11777 0.117785,0 0.259142,-0.22773 l 0.196319,0.0471 0.510432,0.18062 0.212024,0.17276 0.290554,0.18061 0.290553,0.44761 q 0.1178,0.14923 0.463315,0.14923 0.227729,0.28269 0.306258,0.55754 0.07853,0.27485 0.172761,1.013 z m -1.138655,0.19632 -0.290551,-0.90307 -0.04712,-0.40049 -0.07853,-0.14923 h -0.04712 q -0.06282,0 -0.102087,-0.0236 -0.03927,-0.0236 -0.09423,-0.0863 l -0.384785,-0.47902 -0.125641,-0.19632 -0.659634,-0.30626 q -0.09423,-0.15705 -0.16491,-0.22773 -0.06282,-0.0786 -0.157056,-0.0786 -0.102087,0 -0.321963,0.0786 -0.219878,-0.0942 -0.321965,-0.0942 l -0.22773,0.0315 -0.384787,0.0156 -0.533989,0.19632 -0.125641,-0.10987 -0.09423,0.12567 -0.53399,0.32196 -0.981599,0.84811 -0.188467,0.16491 q -0.06282,0.40049 -0.361228,0.91877 l -0.109944,0.18847 v 0.0628 q 0,0.17277 -0.05496,0.22773 -0.05496,0.055 -0.219878,0.0786 -0.03141,0.12567 -0.03141,0.11777 0.0079,0.0156 0.0079,0.0314 0.0079,0.008 0.0079,0.0157 l 0.243436,0.27484 0.03141,0.17276 q -0.243436,0.20418 -0.243436,0.27486 0,0 0.03141,0.0942 0.07068,-0.0786 0.133498,-0.0786 0.07068,0 0.09423,0.0471 l 0.180615,0.58111 0.400492,0.65963 -0.04712,0.40049 q 0.06282,0.0628 0.141354,0.0628 0.09423,0 0.19632,-0.0942 l 0.157055,0.0471 0.950186,0.58112 0.965894,0.0942 0.549695,0.0786 0.620369,-0.10987 0.408346,-0.0942 0.510431,-0.51829 0.36908,-0.10987 0.180615,-0.19632 0.416197,-0.8638 0.212025,-0.18062 q 0.109943,-0.10987 0.109943,-0.18846 v -0.0392 l -0.125641,-0.36908 z"
         style="font-style:normal;font-variant:normal;font-weight:normal;font-stretch:normal;font-size:medium;line-height:1.25;font-family:Papyrus;-inkscape-font-specification:'Papyrus, Normal';font-variant-ligatures:normal;font-variant-caps:normal;font-variant-numeric:normal;text-align:start;letter-spacing:0px;word-spacing:0px;writing-mode:lr-tb;text-anchor:start;fill:#000000;fill-opacity:1;stroke:none;stroke-width:0.40206259"
         id="path906"
         inkscape:connector-curvature="0" />
      <path
         d="m 88.538514,278.56631 -0.03141,0.41619 0.01571,0.32197 q 0,0.11777 -0.117785,0.19632 l 0.04712,0.18846 -0.172761,0.0315 -0.518284,0.32197 -0.204173,0.0315 -0.243435,0.14922 q -0.03141,0 -0.05496,0 -0.02355,0.008 -0.05497,0.0157 -0.14921,0 -0.14921,-0.0942 v -0.19632 l -0.04712,-0.35337 0.109944,-0.85595 0.03927,-1.09155 q 0.02355,-0.40049 0.172761,-0.65963 l -0.09423,-0.24342 q -0.133498,-0.24344 -0.133498,-0.28271 0,-0.12567 0.19632,-0.45546 0.07853,-0.11777 0.07853,-0.25915 0,-0.10987 -0.235585,-0.20416 l 0.03141,-0.13357 -0.07068,-0.0315 v -0.11002 -0.12567 l 0.133497,-0.5497 v -1.35067 l 0.157056,-0.62822 q 0,-0.12568 -0.188466,-0.27486 v -0.36908 l -0.03141,-1.41351 q 0,-0.15705 0.204172,-0.53399 l 0.117785,-0.20417 q -0.290552,-0.13357 -0.290552,-0.24343 0,0.0315 0.04711,-0.30626 l -0.164908,-0.14132 v -0.30626 l -0.03141,-0.36908 v -0.0707 l 0.133498,-0.40049 -0.133498,-0.55756 0.03141,-0.27483 -0.157055,-0.91879 v -0.0786 -0.0471 l 0.06282,-0.25914 0.04712,-0.32197 0.706751,-0.38478 0.321964,-0.24344 0.133497,-0.0315 0.109944,0.17277 0.01571,0.33767 0.06282,0.22773 0.0157,0.13357 v 0.18846 l -0.04712,0.58111 v 0.0471 l 0.0157,0.27485 q 0,0.14133 -0.03141,0.20418 l -0.188468,0.40835 -0.02355,0.15705 q 0.157056,0.008 0.19632,0.055 0.04712,0.0392 0.04712,0.21988 v 0.17277 q 0,0.15705 -0.188467,0.25914 v 0.19631 l -0.0157,0.15706 v 0.0628 l 0.141354,0.22774 -0.06282,1.49988 v 1.07582 l -0.212025,0.41621 0.117785,0.59681 -0.164908,0.38478 q 0.02355,0.0707 0.141354,0.18062 l 0.133498,0.14132 0.06282,2.54429 -0.196319,0.21989 q 0.02355,0.14923 0.02355,0.32196 0,0.27485 -0.07068,0.51828 l 0.07068,0.17276 h 0.219878 v 0.29057 z"
         style="font-style:normal;font-variant:normal;font-weight:normal;font-stretch:normal;font-size:medium;line-height:1.25;font-family:Papyrus;-inkscape-font-specification:'Papyrus, Normal';font-variant-ligatures:normal;font-variant-caps:normal;font-variant-numeric:normal;text-align:start;letter-spacing:0px;word-spacing:0px;writing-mode:lr-tb;text-anchor:start;fill:#000000;fill-opacity:1;stroke:none;stroke-width:0.40206259"
         id="path908"
         inkscape:connector-curvature="0" />
      <path
         d="m 96.062025,275.97489 -0.17276,-0.0315 0.0314,0.1806 -0.180617,0.12567 q 0.0393,0.14133 0.0628,0.17277 0.0314,0.0315 0.14921,0.10212 l 0.0157,0.15705 q 0,0.85596 -0.659637,1.85326 -0.149213,0.21988 -0.369083,0.46332 -0.21988,0.24344 -0.27485,0.32196 l -0.23558,0.0628 -1.48418,0.69105 -0.816687,0.0315 -0.596804,0.14922 -0.706747,-0.0156 -0.24344,0.0628 -0.706753,-0.12567 -0.29055,-0.0157 -0.15705,-0.18062 -0.439757,-0.0628 -0.204167,-0.10987 q -0.267,-0.20418 -0.447607,-0.33767 -0.18062,-0.14133 -0.23559,-0.18062 -0.0471,-0.0471 -0.0785,-0.0942 l -0.17276,-0.33767 -0.243437,-0.19632 -0.188467,-0.49472 -0.07068,-0.19632 0.08637,-0.0628 q 0,-0.11002 0.03141,-0.14922 0.03141,-0.0392 0.141353,-0.0786 l -0.04712,-0.12567 -0.259141,-0.16491 v -0.32196 q 0,-0.33767 0.07853,-0.66748 0.07853,-0.32982 0.274848,-0.76172 0.306254,-0.69104 0.455464,-0.78529 l 0.321957,-0.21201 0.17276,-0.30627 q 0.0942,-0.1649 0.22773,-0.21987 l 0.738154,-0.39265 0.4162,-0.33767 0.502583,-0.18846 0.879507,-0.30626 0.730304,-0.0628 0.573247,-0.0157 q 0.48688,0 0.48688,0.267 0.13349,0.11777 0.17276,0.11777 0.11778,0 0.25914,-0.22773 l 0.196323,0.0471 0.510427,0.18062 0.21202,0.17276 0.29056,0.18061 0.29055,0.44761 q 0.11779,0.14923 0.463323,0.14923 0.227727,0.28269 0.306247,0.55754 0.0785,0.27485 0.17277,1.013 z m -1.13866,0.19632 -0.29055,-0.90307 -0.0471,-0.40049 -0.0785,-0.14923 h -0.0471 q -0.0628,0 -0.10209,-0.0236 -0.0393,-0.0236 -0.0942,-0.0863 l -0.384777,-0.47902 -0.12564,-0.19632 -0.659643,-0.30626 q -0.0942,-0.15705 -0.16491,-0.22773 -0.0628,-0.0786 -0.15705,-0.0786 -0.10209,0 -0.321957,0.0786 -0.21988,-0.0942 -0.32197,-0.0942 l -0.227727,0.0315 -0.384787,0.0156 -0.533987,0.19632 -0.12564,-0.10987 -0.0942,0.12567 -0.533993,0.32196 -0.981597,0.84811 -0.18846,0.16491 q -0.0628,0.40049 -0.361227,0.91877 l -0.10994,0.18847 v 0.0628 q 0,0.17277 -0.055,0.22773 -0.055,0.055 -0.219877,0.0786 -0.0314,0.12567 -0.0314,0.11777 0.008,0.0156 0.008,0.0314 0.008,0.008 0.008,0.0157 l 0.243427,0.27484 0.0314,0.17276 q -0.243427,0.20418 -0.243427,0.27486 0,0 0.0314,0.0942 0.0707,-0.0786 0.1335,-0.0786 0.0707,0 0.0942,0.0471 l 0.18061,0.58111 0.400494,0.65963 -0.0471,0.40049 q 0.0628,0.0628 0.14135,0.0628 0.0942,0 0.196317,-0.0942 l 0.15706,0.0471 0.950193,0.58112 0.965887,0.0942 0.549684,0.0786 0.620367,-0.10987 0.40835,-0.0942 0.51043,-0.51829 0.369083,-0.10987 0.18061,-0.19632 0.416197,-0.8638 0.21203,-0.18062 q 0.10994,-0.10987 0.10994,-0.18846 v -0.0392 l -0.12564,-0.36908 z"
         style="font-style:normal;font-variant:normal;font-weight:normal;font-stretch:normal;font-size:medium;line-height:1.25;font-family:Papyrus;-inkscape-font-specification:'Papyrus, Normal';font-variant-ligatures:normal;font-variant-caps:normal;font-variant-numeric:normal;text-align:start;letter-spacing:0px;word-spacing:0px;writing-mode:lr-tb;text-anchor:start;fill:#000000;fill-opacity:1;stroke:none;stroke-width:0.40206259"
         id="path910"
         inkscape:connector-curvature="0" />
    </g>
  </g>
</svg>
